<?xml version="1.0" encoding="utf-8"?>
<!-- Generator: Adobe Illustrator 19.2.0, SVG Export Plug-In . SVG Version: 6.00 Build 0)  -->
<svg version="1.1" id="Layer_1" xmlns="http://www.w3.org/2000/svg" xmlns:xlink="http://www.w3.org/1999/xlink" x="0px" y="0px"
	 viewBox="0 0 64 64" style="enable-background:new 0 0 64 64;" xml:space="preserve">
<style type="text/css">
	.st0{display:none;}
	.st1{display:inline;}
</style>
<g id="Layer_1_1_">
	<g class="st0">
		<rect class="st1" width="64" height="64"/>
	</g>
</g>
<g>
	<path d="M5,32.4v18.8h54V32.4H5z M49.4,36.7h5.7v3.5h-5.7V36.7z M49.4,43.4h5.7v3.5h-5.7V43.4z M8.9,36.7h36.7v3.5H8.9V36.7z
		 M8.9,43.4h36.7v3.5H8.9V43.4z"/>
	<path d="M42.1,10.8h-1.5v1.5v17.3H59V10.8H42.1z M49.3,26.7c-3.4,0-6.1-2.8-6.1-6.1c0-3.4,2.8-6.1,6.1-6.1c3.4,0,6.1,2.8,6.1,6.1
		C55.5,23.9,52.7,26.7,49.3,26.7z"/>
	<path d="M37.8,29.6V10.8H5h0v18.8h0H37.8z M12.9,19.2l5.4,2.2l6.5-5.5l4.2,1.2l3.7-3.6h2.5v2.5L30,21.1l-4.5-1.3l-6.7,5.6l-5-2
		L10.2,27H7.6v-2.5L12.9,19.2z"/>
	<path d="M49.3,16.3v4.2h4.2C53.6,18.2,51.7,16.3,49.3,16.3z"/>
</g>
</svg>
